<svg width="1920" height="1080" viewBox="0 0 1920 1080" fill="none" xmlns="http://www.w3.org/2000/svg">
<rect width="1920" height="1080" fill="none"/>
<g clip-path="url(#clip0_1_8)">
<rect width="300" height="300" transform="translate(117 414)" fill="none"/>
<rect width="300" height="300" transform="translate(117 399)" fill="none"/>
<path d="M326.125 549C336.379 536.727 341.998 521.243 342 505.25C342 467.5 311.125 436.5 273.25 436.5H210.75C173 436.5 142 467.5 142 505.25C142 543 172.875 574 210.75 574H242" stroke="url(#paint1_linear_1_8)" stroke-width="6.5" stroke-linecap="round" stroke-linejoin="round"/>
<path d="M376.125 549C386.379 561.273 391.998 576.757 392 592.75C392 630.5 361.125 661.5 323.25 661.5H260.75C223 661.5 192 630.5 192 592.75C192 555 222.875 524 260.75 524H292" stroke="url(#paint2_linear_1_8)" stroke-width="8" stroke-linecap="round" stroke-linejoin="round"/>
</g>
<path d="M487.679 415.909H523.102L606.395 619.354H609.267L692.56 415.909H727.983V661H700.219V474.788H697.825L621.234 661H594.428L517.837 474.788H515.443V661H487.679V415.909ZM801.851 729.932C797.064 729.932 792.796 729.533 789.046 728.735C785.296 728.017 782.704 727.299 781.267 726.581L788.448 701.689C795.309 703.444 801.373 704.082 806.638 703.604C811.904 703.125 816.571 700.771 820.64 696.543C824.789 692.394 828.578 685.653 832.009 676.318L837.275 661.957L769.3 477.182H799.937L850.678 623.662H852.593L903.334 477.182H933.971L855.944 687.807C852.433 697.301 848.085 705.159 842.899 711.382C837.713 717.685 831.69 722.353 824.829 725.384C818.047 728.416 810.388 729.932 801.851 729.932ZM1135.92 415.909H1165.6V578.186C1165.6 594.94 1161.65 609.9 1153.75 623.064C1145.93 636.148 1134.88 646.48 1120.6 654.059C1106.32 661.558 1089.57 665.308 1070.34 665.308C1051.11 665.308 1034.36 661.558 1020.08 654.059C1005.79 646.48 994.705 636.148 986.806 623.064C978.988 609.9 975.078 594.94 975.078 578.186V415.909H1004.76V575.793C1004.76 587.76 1007.39 598.411 1012.66 607.745C1017.92 617 1025.42 624.3 1035.15 629.646C1044.97 634.911 1056.7 637.544 1070.34 637.544C1083.98 637.544 1095.71 634.911 1105.52 629.646C1115.34 624.3 1122.84 617 1128.02 607.745C1133.29 598.411 1135.92 587.76 1135.92 575.793V415.909ZM1224.87 661V415.909H1307.68C1326.83 415.909 1342.55 419.18 1354.83 425.722C1367.12 432.185 1376.21 441.08 1382.12 452.409C1388.02 463.739 1390.97 476.623 1390.97 491.064C1390.97 505.504 1388.02 518.31 1382.12 529.479C1376.21 540.649 1367.16 549.425 1354.95 555.807C1342.74 562.11 1327.15 565.261 1308.16 565.261H1241.14V538.455H1307.2C1320.29 538.455 1330.82 536.54 1338.8 532.71C1346.85 528.881 1352.68 523.455 1356.27 516.435C1359.94 509.334 1361.77 500.877 1361.77 491.064C1361.77 481.251 1359.94 472.674 1356.27 465.334C1352.6 457.994 1346.73 452.33 1338.68 448.341C1330.62 444.272 1319.97 442.237 1306.72 442.237H1254.55V661H1224.87ZM1340.23 550.901L1400.55 661H1366.08L1306.72 550.901H1340.23ZM1440.43 661V415.909H1470.11V634.672H1584.04V661H1440.43ZM1756.37 518.349L1730.99 525.53C1729.4 521.301 1727.05 517.193 1723.93 513.203C1720.9 509.135 1716.75 505.784 1711.49 503.151C1706.22 500.518 1699.48 499.202 1691.26 499.202C1680.01 499.202 1670.64 501.795 1663.14 506.98C1655.72 512.087 1652.01 518.589 1652.01 526.487C1652.01 533.508 1654.56 539.053 1659.67 543.122C1664.78 547.191 1672.75 550.581 1683.6 553.294L1710.89 559.996C1727.32 563.985 1739.57 570.088 1747.63 578.306C1755.69 586.444 1759.72 596.935 1759.72 609.78C1759.72 620.311 1756.68 629.725 1750.62 638.023C1744.64 646.32 1736.26 652.862 1725.49 657.649C1714.72 662.436 1702.19 664.83 1687.91 664.83C1669.16 664.83 1653.65 660.761 1641.36 652.623C1629.07 644.485 1621.29 632.598 1618.02 616.96L1644.83 610.259C1647.38 620.152 1652.21 627.571 1659.31 632.518C1666.49 637.464 1675.87 639.938 1687.43 639.938C1700.6 639.938 1711.05 637.145 1718.79 631.56C1726.61 625.896 1730.52 619.114 1730.52 611.216C1730.52 604.833 1728.28 599.488 1723.81 595.18C1719.35 590.792 1712.49 587.521 1703.23 585.366L1672.59 578.186C1655.76 574.197 1643.39 568.014 1635.5 559.637C1627.68 551.18 1623.77 540.609 1623.77 527.923C1623.77 517.552 1626.68 508.377 1632.5 500.398C1638.41 492.42 1646.43 486.157 1656.56 481.61C1666.77 477.062 1678.34 474.788 1691.26 474.788C1709.45 474.788 1723.73 478.777 1734.11 486.756C1744.56 494.734 1751.98 505.265 1756.37 518.349Z" fill="url(#paint3_linear_1_8)"/>
<defs>
<linearGradient id="paint0_linear_1_8" x1="150" y1="0" x2="150" y2="300" gradientUnits="userSpaceOnUse">
<stop stop-color="none"/>
<stop offset="0.854167" stop-color="none" stop-opacity="0"/>
</linearGradient>
<linearGradient id="paint1_linear_1_8" x1="242" y1="436.5" x2="242" y2="574" gradientUnits="userSpaceOnUse">
<stop offset="0.114583" stop-color="#8B5CF6"/>
<stop offset="0.916567" stop-color="#EC4899"/>
<stop offset="1" stop-color="#0C0101" stop-opacity="0.046875"/>
</linearGradient>
<linearGradient id="paint2_linear_1_8" x1="292" y1="524" x2="292" y2="661.5" gradientUnits="userSpaceOnUse">
<stop offset="0.114583" stop-color="#8B5CF6"/>
<stop offset="0.916567" stop-color="#EC4899"/>
<stop offset="1" stop-color="#0C0101" stop-opacity="0.046875"/>
</linearGradient>
<linearGradient id="paint3_linear_1_8" x1="1547" y1="547" x2="593" y2="524.5" gradientUnits="userSpaceOnUse">
<stop offset="0.03125" stop-color="#EF4444"/>
<stop offset="0.364583" stop-color="#EC4899"/>
<stop offset="1" stop-color="#8B5CF6"/>
</linearGradient>
<clipPath id="clip0_1_8">
<rect width="300" height="300" fill="none" transform="translate(117 414)"/>
</clipPath>
</defs>
</svg>
