<?xml version="1.0" standalone="no"?>
<!DOCTYPE svg PUBLIC "-//W3C//DTD SVG 20010904//EN"
 "http://www.w3.org/TR/2001/REC-SVG-20010904/DTD/svg10.dtd">
<svg version="1.0" xmlns="http://www.w3.org/2000/svg"
 width="128.000000pt" height="128.000000pt" viewBox="0 0 128.000000 128.000000"
 preserveAspectRatio="xMidYMid meet">
<metadata>
Created by potrace 1.14, written by Peter Selinger 2001-2017
</metadata>
<g transform="translate(0.000000,128.000000) scale(0.100000,-0.100000)"
fill="#000000" stroke="none">
<path d="M284 1129 c-74 -28 -137 -88 -175 -164 -27 -55 -31 -75 -31 -140 0
-65 4 -85 31 -140 39 -79 100 -135 147 -135 l33 0 -6 -63 c-10 -110 46 -241
126 -294 33 -23 38 -23 333 -23 330 0 329 0 386 65 54 61 75 113 80 196 5 85
-6 131 -47 197 -29 46 -54 60 -76 42 -18 -15 -20 -56 -4 -66 24 -14 49 -90 49
-150 0 -110 -77 -215 -178 -244 -62 -17 -370 -13 -425 6 -104 35 -175 149
-164 260 3 29 8 58 12 64 3 5 44 10 92 10 105 0 101 13 -5 20 l-77 5 50 51
c62 64 121 84 246 84 79 0 89 2 99 21 9 17 8 25 -7 41 -17 19 -27 20 -123 15
-142 -7 -189 -25 -265 -101 -33 -34 -65 -70 -71 -81 -12 -20 -12 -20 -49 -1
-20 11 -50 37 -66 57 -115 145 -49 362 125 414 58 17 349 21 406 5 100 -28
181 -120 195 -221 8 -56 -14 -142 -46 -182 -24 -31 -22 -60 4 -65 25 -5 44 14
75 72 23 44 27 63 27 141 0 76 -4 98 -24 140 -32 63 -93 124 -156 156 -48 23
-60 24 -260 26 -190 2 -215 1 -261 -18z"/>
</g>
</svg>
